<svg width="97" height="97" viewBox="0 0 97 97" fill="none" xmlns="http://www.w3.org/2000/svg">
<path d="M0.521484 48.6758C0.521484 26.0484 0.521484 14.7347 7.55092 7.70522C14.5804 0.675781 25.8941 0.675781 48.5215 0.675781C71.1489 0.675781 82.4626 0.675781 89.4921 7.70522C96.5215 14.7347 96.5215 26.0484 96.5215 48.6758C96.5215 71.3032 96.5215 82.6169 89.4921 89.6464C82.4626 96.6758 71.1489 96.6758 48.5215 96.6758C25.8941 96.6758 14.5804 96.6758 7.55092 89.6464C0.521484 82.6169 0.521484 71.3032 0.521484 48.6758Z" fill="#F28338"/>
<path d="M41.6574 73.0913L41.6793 73.1122C45.576 76.5121 47.5243 78.212 49.988 78.6478C51.9986 79.0036 54.2887 78.6003 56.0568 77.5792C58.2234 76.328 59.4613 74.0878 61.9369 69.6074C62.2793 68.9876 62.6382 68.3425 63.0144 67.6709C67.3608 58.778 69.9804 49.0901 70.6843 45.9045C71.477 42.3167 72.0338 38.6601 72.137 34.9962C72.2116 32.3457 71.8301 28.1714 70.8232 26.7014C69.3296 24.521 66.9351 23.0909 62.8772 24.0822C58.8192 25.0735 56.1118 28.1274 54.0068 30.8823C50.6029 35.3372 48.9282 39.4669 47.5768 43.3066C44.5679 39.6931 41.2715 36.3618 37.1492 33.8532C34.1405 32.0222 30.0819 29.3808 26.2706 29.8821C23.989 30.1822 19.3616 32.4917 19.1037 37.471C18.7884 40.2123 19.8882 43.0826 20.9402 45.56C22.3944 48.9847 24.2744 52.2361 26.3518 55.3358C30.7257 61.8621 35.9534 67.6389 41.6574 73.0913Z" fill="white"/>
</svg>
